HIERARCHY
ROOT Hips
{
    OFFSET 0.000000 0.000000 0.000000
    CHANNELS 6 Xposition Yposition Zposition Zrotation Xrotation Yrotation
    JOINT Chest
    {
        OFFSET -0.000000 0.078598 0.000000
        CHANNELS 3 Zrotation Xrotation Yrotation
        JOINT Chest2
        {
            OFFSET -0.000000 0.230468 0.000000
            CHANNELS 3 Zrotation Xrotation Yrotation
            JOINT Neck
            {
                OFFSET -0.000000 0.249638 0.000000
                CHANNELS 3 Zrotation Xrotation Yrotation
                JOINT Head
                {
                    OFFSET -0.000000 0.103998 0.019170
                    CHANNELS 3 Zrotation Xrotation Yrotation
                    End Site
                    {
                        OFFSET -0.000000 0.191701 0.000000
                    }
                }
            }
            JOINT LeftCollar
            {
                OFFSET 0.038274 0.205938 -0.001496
                CHANNELS 3 Zrotation Xrotation Yrotation
                JOINT LeftShoulder
                {
                    OFFSET 0.132388 0.000000 0.000000
                    CHANNELS 3 Zrotation Xrotation Yrotation
                    JOINT LeftElbow
                    {
                        OFFSET 0.250301 0.000000 0.000000
                        CHANNELS 3 Zrotation Xrotation Yrotation
                        JOINT LeftWrist
                        {
                            OFFSET 0.285291 0.000000 0.000000
                            CHANNELS 3 Zrotation Xrotation Yrotation
                            End Site
                            {
                                OFFSET 0.000000 -0.143776 0.000000
                            }
                        }
                    }
                }
            }
            JOINT RightCollar
            {
                OFFSET -0.038406 0.205938 -0.001496
                CHANNELS 3 Zrotation Xrotation Yrotation
                JOINT RightShoulder
                {
                    OFFSET -0.132388 0.000000 0.000000
                    CHANNELS 3 Zrotation Xrotation Yrotation
                    JOINT RightElbow
                    {
                        OFFSET -0.250301 0.000000 0.000000
                        CHANNELS 3 Zrotation Xrotation Yrotation
                        JOINT RightWrist
                        {
                            OFFSET -0.285291 0.000000 0.000000
                            CHANNELS 3 Zrotation Xrotation Yrotation
                            End Site
                            {
                                OFFSET -0.000000 -0.143776 0.000000
                            }
                        }
                    }
                }
            }
        }
    }
    JOINT LeftHip
    {
        OFFSET 0.095851 0.000000 0.000000
        CHANNELS 3 Zrotation Xrotation Yrotation
        JOINT LeftKnee
        {
            OFFSET -0.000000 -0.406444 0.000000
            CHANNELS 3 Zrotation Xrotation Yrotation
            JOINT LeftAnkle
            {
                OFFSET -0.000000 -0.408443 0.000000
                CHANNELS 3 Zrotation Xrotation Yrotation
                JOINT LeftToe
                {
                    OFFSET -0.000000 -0.062303 0.143776
                    CHANNELS 3 Zrotation Xrotation Yrotation
                    End Site
                    {
                        OFFSET -0.000000 0.000000 0.038340
                    }
                }
            }
        }
    }
    JOINT RightHip
    {
        OFFSET -0.095851 0.000000 0.000000
        CHANNELS 3 Zrotation Xrotation Yrotation
        JOINT RightKnee
        {
            OFFSET -0.000000 -0.406444 0.000000
            CHANNELS 3 Zrotation Xrotation Yrotation
            JOINT RightAnkle
            {
                OFFSET -0.000000 -0.408443 0.000000
                CHANNELS 3 Zrotation Xrotation Yrotation
                JOINT RightToe
                {
                    OFFSET -0.000000 -0.062303 0.143776
                    CHANNELS 3 Zrotation Xrotation Yrotation
                    End Site
                    {
                        OFFSET -0.000000 0.000000 0.038340
                    }
                }
            }
        }
    }
}
MOTION
Frames:    7
Frame Time:    0.016667
-0.084913    0.881572    0.176741    -0.747139    2.866421    -175.954956    -1.574617    -2.635287    -1.063806    0.458399    3.567940    -0.356072    0.137842    7.515768    -0.761915    -4.854559    -1.658378    -0.202407    10.223398    -1.577805    -3.951727    -19.010206    0.984013    -9.413635    -1.440985    -9.934264    -0.516804    89.455841    1.205857    9.946393    -10.348455    -2.627743    2.417023    22.519955    -1.550612    -0.405823    -3.288927    -8.112818    -1.906251    -84.927467    2.420429    -8.274230    4.737118    9.928044    0.892124    -0.735290    -3.447099    0.824820    -3.791695    -8.436535    11.936584    0.000000    0.000000    0.000000    -5.747722    11.586284    5.420716    1.534782    -9.707845    1.482009    1.592628    -5.780431    -16.440483    0.000000    0.000000    0.000000    
-0.084892    0.881565    0.176793    -0.756153    2.860552    -175.947769    -1.571733    -2.644101    -1.068583    0.438598    3.578365    -0.357142    0.161847    7.497355    -0.762120    -4.841785    -1.661182    -0.199377    10.252120    -1.573734    -3.960772    -19.000780    0.935058    -9.381832    -1.502556    -9.954986    -0.568192    89.452881    1.135472    9.967747    -10.346933    -2.621158    2.411816    22.539429    -1.468204    -0.390465    -3.318855    -8.123919    -1.928949    -85.001991    2.364822    -8.282471    4.705462    9.911665    0.914753    -0.688420    -3.436778    0.832594    -3.831809    -8.439561    11.902636    0.000000    0.000000    0.000000    -5.756009    11.580154    5.422861    1.535504    -9.721066    1.494816    1.761998    -5.910247    -16.512886    0.000000    0.000000    0.000000    
-0.084865    0.881555    0.176834    -0.761152    2.860139    -175.939590    -1.554795    -2.644517    -1.089373    0.394292    3.580779    -0.362829    0.291864    7.449003    -0.775343    -5.013485    -1.623340    -0.165850    10.368272    -1.397704    -3.868193    -19.093863    0.774033    -9.560706    -1.492736    -9.943700    -0.513620    89.436111    1.083513    9.955625    -10.290735    -2.649735    2.426744    22.515177    -1.320830    -0.381885    -3.360339    -8.186505    -1.942363    -84.951553    2.352541    -8.346631    4.704362    9.913694    0.898274    -0.690171    -3.450508    0.856652    -3.848915    -8.428949    11.892909    0.000000    0.000000    0.000000    -5.763611    11.589130    5.425267    1.541011    -9.738430    1.510248    1.758373    -5.907230    -16.533003    0.000000    0.000000    0.000000    
-0.084837    0.881546    0.176880    -0.759706    2.860873    -175.934830    -1.526385    -2.653552    -1.121068    0.362896    3.598296    -0.372648    0.268590    7.436809    -0.759452    -4.987324    -1.625737    -0.157316    10.362683    -1.393941    -3.851506    -19.069950    0.785095    -9.548740    -1.513481    -9.916781    -0.515582    89.410774    1.060974    9.928945    -10.279544    -2.654735    2.449228    22.523252    -1.267368    -0.360131    -3.389807    -8.221061    -1.925115    -84.906570    2.351481    -8.382032    4.708855    9.909894    0.917424    -0.689293    -3.447294    0.836161    -3.852309    -8.431827    11.887086    0.000000    0.000000    0.000000    -5.761742    11.604164    5.417367    1.542804    -9.761331    1.476830    1.573996    -5.751489    -16.437523    0.000000    0.000000    0.000000    
-0.084818    0.881554    0.176909    -0.762800    2.859151    -175.928757    -1.513572    -2.715801    -1.144453    0.357116    3.705184    -0.380459    0.208251    7.399249    -0.768284    -4.929410    -1.642772    -0.185882    10.354620    -1.407093    -3.852713    -19.054420    0.768782    -9.542507    -1.532280    -9.881055    -0.513714    89.559631    1.079960    9.891970    -10.317059    -2.683054    2.464510    22.670855    -1.228268    -0.301415    -3.617319    -8.248125    -1.985063    -84.821548    2.314679    -8.414846    4.707882    9.911031    0.907766    -0.688639    -3.459520    0.852097    -3.842397    -8.425480    11.875640    0.000000    0.000000    0.000000    -5.762856    11.606038    5.420248    1.542261    -9.769282    1.486649    1.573305    -5.756991    -16.470943    0.000000    0.000000    0.000000    
-0.084817    0.881558    0.176976    -0.762990    2.854902    -175.915207    -1.499583    -2.716186    -1.164309    0.337478    3.703859    -0.386558    0.216085    7.362565    -0.755338    -4.934998    -1.584894    -0.167936    10.334616    -1.358760    -3.860196    -19.012371    0.772014    -9.544124    -1.528800    -9.892756    -0.517475    89.564857    0.997264    9.903341    -10.311031    -2.692837    2.466463    22.672369    -1.238017    -0.287442    -3.631783    -8.256240    -1.975837    -84.897766    2.398666    -8.425131    4.692414    9.879525    0.895023    -0.650549    -3.435711    1.186742    -3.915306    -8.406184    11.526702    0.000000    0.000000    0.000000    -5.761332    11.597153    5.405208    1.544886    -9.776042    1.502786    1.748818    -5.882369    -16.537552    0.000000    0.000000    0.000000    
-0.084794    0.881539    0.177002    -0.763018    2.858167    -175.910828    -1.503917    -2.722036    -1.173745    0.348419    3.716226    -0.389988    0.209868    7.360376    -0.758107    -4.930395    -1.592735    -0.172873    10.335255    -1.404163    -3.902730    -19.044535    0.909280    -9.514116    -1.444131    -9.936110    -0.472991    89.526360    0.979294    9.946029    -10.313426    -2.704099    2.474112    22.531830    -1.345832    -0.325871    -3.374473    -8.178989    -1.891430    -84.954636    2.347515    -8.337581    4.695196    9.882413    0.902572    -0.653535    -3.440482    1.160824    -3.921019    -8.407569    11.545986    0.000000    0.000000    0.000000    -5.757861    11.602494    5.407346    1.543975    -9.780634    1.486400    1.746091    -5.885839    -16.526743    0.000000    0.000000    0.000000    
